<svg width="457" height="335" xmlns="http://www.w3.org/2000/svg" xmlns:xlink="http://www.w3.org/1999/xlink" xml:space="preserve" overflow="hidden"><defs><clipPath id="clip0"><rect x="0" y="705" width="457" height="335"/></clipPath></defs><g clip-path="url(#clip0)" transform="matrix(1 0 0 1 0 -705)"><path d="M323.708 38.0833 95.2083 38.0833 95.2083 414.156 361.792 414.156 361.792 38.0833ZM352.271 47.6042 352.271 71.4062 323.708 71.4062 323.708 47.6042ZM142.812 156.97C142.865 157.013 142.908 157.056 142.96 157.094 142.908 157.132 142.865 157.175 142.812 157.218ZM133.292 104.729 104.729 104.729 104.729 80.9271 133.292 80.9271ZM133.292 114.25 133.292 138.052 104.729 138.052 104.729 114.25ZM133.292 147.573 133.292 171.375 104.729 171.375 104.729 147.573ZM133.292 180.896 133.292 204.698 104.729 204.698 104.729 180.896ZM133.292 214.219 133.292 238.021 104.729 238.021 104.729 214.219ZM133.292 247.542 133.292 271.344 104.729 271.344 104.729 247.542ZM133.292 280.865 133.292 304.667 104.729 304.667 104.729 280.865ZM133.292 314.188 133.292 337.99 104.729 337.99 104.729 314.188ZM133.292 347.51 133.292 371.312 104.729 371.312 104.729 347.51ZM142.812 295.022C142.865 295.065 142.908 295.108 142.96 295.146 142.908 295.184 142.865 295.227 142.812 295.27ZM142.812 276.104 142.812 176.135C142.812 168.248 149.206 161.854 157.094 161.854L299.906 161.854C307.794 161.854 314.188 168.248 314.188 176.135L314.188 276.104C314.188 283.992 307.794 290.385 299.906 290.385L157.094 290.385C149.206 290.385 142.812 283.992 142.812 276.104ZM314.188 157.218C314.135 157.175 314.092 157.132 314.04 157.094 314.092 157.056 314.135 157.013 314.188 156.97ZM314.188 295.022 314.188 295.27C314.135 295.227 314.092 295.184 314.04 295.146 314.092 295.108 314.135 295.065 314.188 295.022ZM323.708 347.51 352.271 347.51 352.271 371.312 323.708 371.312ZM323.708 337.99 323.708 314.188 352.271 314.188 352.271 337.99ZM323.708 304.667 323.708 280.865 352.271 280.865 352.271 304.667ZM323.708 271.344 323.708 247.542 352.271 247.542 352.271 271.344ZM323.708 238.021 323.708 214.219 352.271 214.219 352.271 238.021ZM323.708 204.698 323.708 180.896 352.271 180.896 352.271 204.698ZM323.708 171.375 323.708 147.573 352.271 147.573 352.271 171.375ZM323.708 138.052 323.708 114.25 352.271 114.25 352.271 138.052ZM323.708 104.729 323.708 80.9271 352.271 80.9271 352.271 104.729ZM314.188 47.6042 314.188 138.052C314.188 145.94 307.794 152.333 299.906 152.333L157.094 152.333C149.206 152.333 142.812 145.94 142.812 138.052L142.812 47.6042ZM133.292 47.6042 133.292 71.4062 104.729 71.4062 104.729 47.6042ZM104.729 404.635 104.729 380.833 133.292 380.833 133.292 404.635ZM142.812 404.635 142.812 314.188C142.812 306.3 149.206 299.906 157.094 299.906L299.906 299.906C307.794 299.906 314.188 306.3 314.188 314.188L314.188 404.635ZM323.708 404.635 323.708 380.833 352.271 380.833 352.271 404.635Z" transform="matrix(6.12977e-17 1.00107 -1 6.12323e-17 457 646.89)"/></g></svg>