<svg width="335" height="335" xmlns="http://www.w3.org/2000/svg" xmlns:xlink="http://www.w3.org/1999/xlink" xml:space="preserve" overflow="hidden"><defs><clipPath id="clip0"><rect x="407" y="693" width="335" height="335"/></clipPath></defs><g clip-path="url(#clip0)" transform="translate(-407 -693)"><path d="M597.207 873.104C610.697 873.104 621.634 884.041 621.634 897.531 621.634 911.022 610.697 921.959 597.207 921.959 583.716 921.959 572.78 911.022 572.78 897.531 572.799 884.049 583.724 873.124 597.207 873.104M597.207 866.125C579.861 866.125 565.8 880.186 565.8 897.531 565.8 914.877 579.861 928.938 597.207 928.938 614.552 928.938 628.613 914.877 628.613 897.531 628.613 880.186 614.552 866.125 597.207 866.125Z"/><path d="M660.093 1000.16 653.113 1000.16 653.113 970.457C653.231 966.885 651.553 963.493 648.643 961.419 640.457 955.01 630.968 950.469 620.842 948.113 613.136 945.788 605.158 944.486 597.112 944.24 589.221 944.274 581.384 945.552 573.889 948.026 563.801 950.771 554.287 955.304 545.798 961.408 542.982 963.578 541.326 966.926 541.311 970.481L541.311 1000.17 534.331 1000.17 534.331 970.457C534.372 964.7 537.079 959.287 541.66 955.801 550.789 949.217 561.026 944.324 571.883 941.354 580.049 938.671 588.587 937.292 597.182 937.271 605.804 937.518 614.356 938.898 622.618 941.378 633.61 943.948 643.91 948.882 652.803 955.835 657.52 959.231 660.246 964.745 660.079 970.554Z"/><path d="M511.775 824.163C525.265 824.163 536.202 835.099 536.202 848.59 536.202 862.081 525.265 873.017 511.775 873.017 498.284 873.017 487.348 862.081 487.348 848.59 487.367 835.107 498.292 824.182 511.775 824.163M511.775 817.184C494.429 817.184 480.368 831.245 480.368 848.59 480.368 865.935 494.429 879.996 511.775 879.996 529.12 879.996 543.181 865.935 543.181 848.59 543.181 831.245 529.12 817.184 511.775 817.184Z"/><path d="M559.006 901.213C552.23 897.187 544.875 894.226 537.2 892.433 528.939 889.95 520.387 888.567 511.764 888.322 503.159 888.342 494.612 889.721 486.437 892.409 475.576 895.374 465.335 900.266 456.203 906.852 451.622 910.339 448.916 915.752 448.875 921.508L448.875 951.229 455.854 951.229 455.854 921.533C455.87 917.978 457.526 914.629 460.342 912.46 468.83 906.356 478.345 901.825 488.433 899.081 495.937 896.605 503.785 895.328 511.688 895.298 519.733 895.544 527.711 896.848 535.417 899.175 544.773 901.363 553.591 905.419 561.341 911.099 560.125 907.923 559.339 904.598 559.006 901.213Z"/><path d="M690.853 727.896C691.061 727.904 691.225 728.075 691.223 728.283L691.223 818.276C691.228 818.464 691.094 818.627 690.909 818.66L606.042 818.66 603.99 820.754 587.017 838.027 587.017 818.653 559.146 818.653C558.982 818.653 558.797 818.461 558.797 818.164L558.797 728.245C558.793 728.076 558.911 727.929 559.076 727.896L690.853 727.896M690.909 720.917 559.1 720.917C555.065 720.955 551.821 724.248 551.842 728.283L551.842 818.164C551.764 822.211 554.981 825.554 559.027 825.632L580.038 825.632 580.038 855.095 608.97 825.632 690.909 825.632C694.948 825.594 698.203 822.309 698.202 818.269L698.202 728.283C698.203 724.243 694.949 720.957 690.909 720.917Z"/><path d="M624.67 737.956 624.321 737.956C623.507 737.91 622.692 737.91 621.878 737.956 610.819 738.62 602.268 747.916 602.528 758.992L602.528 759.417 609.542 759.417 609.542 758.974C609.531 758.446 609.549 757.919 609.598 757.393 610.217 750.345 616.132 744.947 623.208 744.974 623.588 744.97 623.967 744.988 624.345 745.026L624.9 745.026C632.931 745.166 639.332 751.781 639.207 759.812 639.207 767.879 633.251 773.302 624.391 773.302L620.901 773.302 620.901 790.464 627.936 790.464 627.936 780.114 629.011 779.981C639.124 778.736 646.608 769.967 646.249 759.784L646.249 759.302C646.082 747.492 636.481 737.995 624.67 737.956Z"/><path d="M624.401 808.156C621.236 808.158 618.67 805.594 618.668 802.429 618.667 799.265 621.231 796.698 624.395 796.696 627.529 796.695 630.083 799.212 630.127 802.346 630.192 805.491 627.694 808.092 624.55 808.156 624.543 808.156 624.537 808.156 624.53 808.156Z"/></g></svg>